<svg xmlns="http://www.w3.org/2000/svg" viewBox="0 0 256 256" role="img" aria-label="Lidure avatar">
  <defs>
    <linearGradient id="bg" x1="0" x2="1" y1="0" y2="1">
      <stop offset="0" stop-color="#10213f"/>
      <stop offset="0.55" stop-color="#183b63"/>
      <stop offset="1" stop-color="#0c1224"/>
    </linearGradient>
    <linearGradient id="face" x1="0" x2="1" y1="0" y2="1">
      <stop offset="0" stop-color="#ffe3c7"/>
      <stop offset="1" stop-color="#f4b68d"/>
    </linearGradient>
    <linearGradient id="accent" x1="0" x2="1" y1="0" y2="1">
      <stop offset="0" stop-color="#8dd7ff"/>
      <stop offset="1" stop-color="#ffd166"/>
    </linearGradient>
  </defs>
  <rect width="256" height="256" rx="54" fill="url(#bg)"/>
  <circle cx="128" cy="114" r="62" fill="url(#face)"/>
  <path d="M70 94c14-28 43-45 58-45s44 17 58 45c-9-5-24-7-31-7-14 0-18 7-27 7s-13-7-27-7c-7 0-22 2-31 7Z" fill="#18233d"/>
  <path d="M84 171c12-20 29-31 44-31s32 11 44 31" fill="none" stroke="#18233d" stroke-width="14" stroke-linecap="round"/>
  <circle cx="106" cy="115" r="7" fill="#18233d"/>
  <circle cx="150" cy="115" r="7" fill="#18233d"/>
  <path d="M114 141c9 8 18 8 28 0" fill="none" stroke="#18233d" stroke-width="8" stroke-linecap="round"/>
  <rect x="58" y="200" width="140" height="26" rx="13" fill="url(#accent)" opacity="0.9"/>
</svg>